<svg width="13" height="23" viewBox="0 0 13 23" fill="none" xmlns="http://www.w3.org/2000/svg">
<path d="M6.79306 9.94813C4.11722 9.20519 3.2567 8.43704 3.2567 7.24075C3.2567 5.86815 4.44733 4.91111 6.43946 4.91111C8.5376 4.91111 9.3156 5.98148 9.3864 7.55556H11.9915C11.9089 5.38963 10.6712 3.4 8.2076 2.75777V0H4.6712V2.72C2.38441 3.24889 0.545515 4.83556 0.545515 7.26592C0.545515 10.1748 2.79698 11.6229 6.08573 12.4667C9.03279 13.2223 9.62213 14.3304 9.62213 15.5015C9.62213 16.3704 9.04453 17.7556 6.43946 17.7556C4.01113 17.7556 3.05632 16.5971 2.92665 15.1111H0.333328C0.474782 17.8689 2.40798 19.4177 4.6712 19.9341V22.6667H8.2076V19.9592C10.5063 19.4933 12.3333 18.0704 12.3333 15.4889C12.3333 11.9125 9.46893 10.6911 6.79306 9.94813Z" fill="#4BCEA9"/>
</svg>
