<svg width="26" height="26" viewBox="0 0 26 26" fill="none" xmlns="http://www.w3.org/2000/svg">
<path d="M21.4297 7.66797V1.57422H0V20.6172C0 22.7172 1.70854 24.4258 3.80859 24.4258H22.9531C24.6332 24.4258 26 23.059 26 21.3789V7.66797H21.4297ZM3.80859 22.9023C2.54856 22.9023 1.52344 21.8772 1.52344 20.6172V3.09766H19.9062C19.9062 4.66604 19.9062 19.1378 19.9062 21.3789C19.9062 21.9337 20.056 22.4538 20.3162 22.9023H3.80859ZM24.4766 21.3789C24.4766 22.2189 23.7931 22.9023 22.9531 22.9023C22.1131 22.9023 21.4297 22.2189 21.4297 21.3789V9.19141H24.4766V21.3789Z" fill="#E5E5E5"/>
<path d="M3.04688 16.8086V21.3789H18.3828V16.8086H3.04688ZM16.8594 19.8555H4.57031V18.332H16.8594V19.8555Z" fill="#E5E5E5"/>
<path d="M3.04688 10.7148V15.2852H10.7148V10.7148H3.04688ZM9.19141 13.7617H4.57031V12.2383H9.19141V13.7617Z" fill="#E5E5E5"/>
<path d="M12.2383 4.62109V15.2852H18.3828V4.62109H12.2383ZM16.8594 13.7617H13.7617V6.14453H16.8594V13.7617Z" fill="#E5E5E5"/>
<path d="M10.7148 7.66797H3.04688V9.19141H10.7148V7.66797Z" fill="#E5E5E5"/>
<path d="M10.7148 4.62109H3.04688V6.14453H10.7148V4.62109Z" fill="#E5E5E5"/>
</svg>
