<svg width="30" height="30" viewBox="0 0 30 30" fill="none" xmlns="http://www.w3.org/2000/svg">
<path d="M12 10H10C9.44772 10 9 10.4477 9 11V19C9 19.5523 9.44772 20 10 20H12C12.5523 20 13 19.5523 13 19V11C13 10.4477 12.5523 10 12 10Z" stroke="#E5E5E5" stroke-width="2"/>
<path d="M20 10H18C17.4477 10 17 10.4477 17 11V19C17 19.5523 17.4477 20 18 20H20C20.5523 20 21 19.5523 21 19V11C21 10.4477 20.5523 10 20 10Z" fill="#E5E5E5" stroke="#E5E5E5" stroke-width="2"/>
<path d="M19 5V25" stroke="#E5E5E5" stroke-width="2"/>
<path d="M11 5V10" stroke="#E5E5E5" stroke-width="2"/>
<path d="M11 21V25" stroke="#E5E5E5" stroke-width="2"/>
</svg>
