<svg width="26" height="26" viewBox="0 0 26 26" fill="none" xmlns="http://www.w3.org/2000/svg">
<path d="M22.1875 3.81261C19.775 1.40009 16.5807 0.0541329 13.176 0.00914064C13.1167 0.00375782 13.0578 0 13 0C12.9422 0 12.8834 0.00375782 12.8241 0.00914064C9.41938 0.0540821 6.22508 1.40004 3.81256 3.81256C1.35855 6.26667 0.00704956 9.52947 0.00704956 13C0.00704956 16.4705 1.35855 19.7333 3.81261 22.1874C6.22513 24.5999 9.41938 25.9459 12.8241 25.9908C12.8834 25.9962 12.9423 25.9999 13 25.9999C13.0578 25.9999 13.1167 25.9962 13.176 25.9908C16.5807 25.9459 19.775 24.5999 22.1875 22.1874C24.6415 19.7334 25.993 16.4706 25.993 13C25.993 9.52947 24.6416 6.26667 22.1875 3.81261ZM4.90481 4.90482C6.2851 3.52453 7.95606 2.54084 9.77942 2.00937C9.36844 2.4825 8.96895 3.02667 8.59713 3.6297C8.12288 4.39883 7.71226 5.23246 7.36842 6.11387H3.85257C4.17249 5.69071 4.52319 5.28644 4.90481 4.90482ZM2.86848 7.65849H6.84837C6.4345 9.10687 6.18973 10.6499 6.12925 12.2277H1.57787C1.68476 10.6126 2.126 9.06269 2.86848 7.65849ZM2.86853 18.3415C2.12595 16.9373 1.68471 15.3874 1.57782 13.7723H6.1292C6.18968 15.3501 6.43445 16.8932 6.84832 18.3415H2.86853ZM4.90486 21.0952C4.52314 20.7136 4.17244 20.3093 3.85257 19.8861H7.36847C7.71231 20.7675 8.12288 21.6012 8.59718 22.3703C8.969 22.9733 9.36849 23.5175 9.77947 23.9906C7.95616 23.4592 6.2852 22.4755 4.90486 21.0952ZM12.2277 24.1375C11.5842 23.7165 10.7202 22.8707 9.9118 21.5596C9.58757 21.0338 9.29613 20.4738 9.03852 19.8862H12.2276V24.1375H12.2277ZM12.2277 18.3415H8.45996C8.00862 16.9104 7.74075 15.3631 7.67494 13.7723H12.2277V18.3415ZM12.2277 12.2277H7.67494C7.7407 10.6369 8.00857 9.08956 8.45996 7.65849H12.2277V12.2277ZM12.2277 6.11382H9.03857C9.29618 5.52618 9.58762 4.96616 9.91186 4.44037C10.7202 3.1293 11.5843 2.28343 12.2277 1.86251V6.11382H12.2277ZM23.1316 7.65849C23.8741 9.06274 24.3153 10.6126 24.4222 12.2277H19.8708C19.8103 10.6499 19.5655 9.10682 19.1517 7.65849H23.1316ZM21.0953 4.90482C21.4769 5.28644 21.8276 5.69071 22.1475 6.11387H18.6317C18.2878 5.23246 17.8773 4.39883 17.403 3.6297C17.0312 3.02667 16.6317 2.4825 16.2207 2.00937C18.044 2.54084 19.7149 3.52453 21.0953 4.90482ZM13.7724 1.86251C14.4158 2.28348 15.2798 3.1293 16.0882 4.44037C16.4125 4.96616 16.7039 5.52618 16.9615 6.11382H13.7724V1.86251H13.7724ZM13.7724 7.65849H17.5401C17.9915 9.08961 18.2593 10.637 18.3251 12.2277H13.7724V7.65849ZM18.3251 13.7723C18.2593 15.3631 17.9914 16.9104 17.54 18.3415H13.7723V13.7723H18.3251ZM13.7724 24.1375V19.8862H16.9615C16.7039 20.4738 16.4124 21.0338 16.0882 21.5596C15.2798 22.8708 14.4158 23.7165 13.7724 24.1375ZM21.0953 21.0952C19.7149 22.4755 18.044 23.4592 16.2207 23.9907C16.6317 23.5176 17.0312 22.9734 17.403 22.3704C17.8772 21.6012 18.2878 20.7676 18.6317 19.8862H22.1475C21.8277 20.3093 21.4769 20.7136 21.0953 21.0952ZM23.1316 18.3415H19.1517C19.5655 16.8932 19.8104 15.3501 19.8708 13.7723H24.4222C24.3153 15.3874 23.874 16.9373 23.1316 18.3415Z" fill="#E5E5E5"/>
</svg>
