<svg width="24" height="24" viewBox="0 0 24 24" fill="none" xmlns="http://www.w3.org/2000/svg">
<path d="M20.6701 13.105C20.7139 12.7508 20.7431 12.3825 20.7431 12C20.7431 11.6175 20.7139 11.2492 20.6556 10.895L23.1182 9.02501C23.3368 8.85501 23.3951 8.54334 23.2639 8.30251L20.9325 4.37834C20.7867 4.12334 20.4807 4.03834 20.2185 4.12334L17.3187 5.25667C16.7067 4.80334 16.0655 4.43501 15.3515 4.15167L14.9143 1.14834C14.8705 0.865005 14.6229 0.666672 14.3315 0.666672H9.66841C9.377 0.666672 9.14388 0.865005 9.10018 1.14834L8.66303 4.15167C7.949 4.43501 7.29328 4.8175 6.69583 5.25667L3.79605 4.12334C3.53376 4.02417 3.22776 4.12334 3.08204 4.37834L0.750548 8.30251C0.604829 8.55751 0.663125 8.85501 0.896266 9.02501L3.3589 10.895C3.3006 11.2492 3.2569 11.6317 3.2569 12C3.2569 12.3683 3.28604 12.7508 3.34432 13.105L0.881703 14.975C0.663126 15.145 0.60483 15.4567 0.735985 15.6975L3.06746 19.6217C3.21318 19.8767 3.51918 19.9617 3.78148 19.8767L6.68127 18.7433C7.29328 19.1967 7.93443 19.565 8.64845 19.8483L9.0856 22.8517C9.14388 23.135 9.377 23.3333 9.66841 23.3333H14.3315C14.6229 23.3333 14.8705 23.135 14.8997 22.8517L15.3369 19.8483C16.0509 19.565 16.7067 19.1825 17.3041 18.7433L20.2039 19.8767C20.4661 19.9758 20.7721 19.8767 20.9179 19.6217L23.2494 15.6975C23.3951 15.4425 23.3368 15.145 23.1036 14.975L20.6701 13.105ZM12 16.25C9.59559 16.25 7.62842 14.3375 7.62842 12C7.62842 9.66251 9.59559 7.75001 12 7.75001C14.4043 7.75001 16.3715 9.66251 16.3715 12C16.3715 14.3375 14.4043 16.25 12 16.25Z" fill="#4BCEA9"/>
</svg>
