<svg width="34" height="22" viewBox="0 0 34 22" fill="none" xmlns="http://www.w3.org/2000/svg">
<path d="M29.4052 9.70499C30.4009 9.00535 31.0602 7.84151 31.0602 6.52968C31.0602 4.38366 29.3245 2.648 27.1785 2.648C25.0324 2.648 23.2968 4.38366 23.2968 6.52968C23.2968 7.84151 23.9493 9.00535 24.9517 9.70499C24.0973 10.001 23.317 10.4585 22.6577 11.0505C21.7495 10.2768 20.6799 9.68481 19.5093 9.33498C20.9288 8.47388 21.8841 6.90641 21.8841 5.12367C21.8841 2.40582 19.6842 0.205978 16.9664 0.205978C14.2485 0.205978 12.0487 2.41255 12.0487 5.12367C12.0487 6.90641 12.9972 8.47388 14.4234 9.33498C13.2663 9.68481 12.2101 10.2701 11.3087 11.0303C10.6494 10.4517 9.88247 10.001 9.04155 9.71172C10.0372 9.01207 10.6965 7.84824 10.6965 6.53641C10.6965 4.39039 8.96082 2.65473 6.8148 2.65473C4.66878 2.65473 2.93312 4.39039 2.93312 6.53641C2.93312 7.84824 3.58567 9.01207 4.58805 9.71172C1.91729 10.6334 0 13.1696 0 16.1498V16.5938C0 16.6072 0.0134547 16.6207 0.0269094 16.6207H8.25445C8.20736 16.9907 8.18045 17.3742 8.18045 17.7576V18.2151C8.18045 20.1929 9.78156 21.794 11.7594 21.794H22.1868C24.1646 21.794 25.7657 20.1929 25.7657 18.2151V17.7576C25.7657 17.3742 25.7388 16.9907 25.6917 16.6207H33.9731C33.9865 16.6207 34 16.6072 34 16.5938V16.1498C33.9865 13.1628 32.076 10.6266 29.4052 9.70499ZM24.3732 6.52295C24.3732 4.97567 25.6312 3.71765 27.1785 3.71765C28.7258 3.71765 29.9838 4.97567 29.9838 6.52295C29.9838 8.05006 28.7527 9.29462 27.2323 9.32826C27.2121 9.32826 27.1987 9.32826 27.1785 9.32826C27.1583 9.32826 27.1448 9.32826 27.1247 9.32826C25.5975 9.30135 24.3732 8.05679 24.3732 6.52295ZM13.1116 5.12367C13.1116 3.00455 14.8338 1.28235 16.9529 1.28235C19.072 1.28235 20.7942 3.00455 20.7942 5.12367C20.7942 7.16878 19.1864 8.84389 17.1749 8.95825C17.1009 8.95825 17.0269 8.95825 16.9529 8.95825C16.8789 8.95825 16.8049 8.95825 16.7309 8.95825C14.7194 8.84389 13.1116 7.16878 13.1116 5.12367ZM3.98932 6.52295C3.98932 4.97567 5.24733 3.71765 6.79462 3.71765C8.34191 3.71765 9.59992 4.97567 9.59992 6.52295C9.59992 8.05006 8.36882 9.29462 6.84844 9.32826C6.82825 9.32826 6.8148 9.32826 6.79462 9.32826C6.77444 9.32826 6.76098 9.32826 6.7408 9.32826C5.22042 9.30135 3.98932 8.05679 3.98932 6.52295ZM8.44282 15.5376H1.08983C1.39256 12.6717 3.8144 10.4248 6.75425 10.4046C6.76771 10.4046 6.78116 10.4046 6.79462 10.4046C6.80807 10.4046 6.82153 10.4046 6.83498 10.4046C8.23427 10.4114 9.51247 10.9294 10.5014 11.7703C9.53265 12.8197 8.81282 14.1114 8.44282 15.5376ZM24.6759 18.2151C24.6759 19.5942 23.5524 20.7177 22.1733 20.7177H11.7459C10.3668 20.7177 9.24337 19.5942 9.24337 18.2151V17.7576C9.24337 13.5799 12.5801 10.1624 16.7309 10.0414C16.8049 10.0481 16.8856 10.0481 16.9596 10.0481C17.0336 10.0481 17.1144 10.0481 17.1884 10.0414C21.3391 10.1624 24.6759 13.5799 24.6759 17.7576V18.2151ZM25.4765 15.5376C25.1065 14.1181 24.4001 12.8467 23.4381 11.7972C24.4337 10.9361 25.7254 10.4181 27.1381 10.4046C27.1516 10.4046 27.165 10.4046 27.1785 10.4046C27.1919 10.4046 27.2054 10.4046 27.2188 10.4046C30.1587 10.4248 32.5805 12.6717 32.8833 15.5376H25.4765Z" fill="#4BCEA9"/>
</svg>
